<?xml version="1.0" encoding="utf-8"?>
<!-- Generator: Adobe Illustrator 24.1.0, SVG Export Plug-In . SVG Version: 6.00 Build 0)  -->
<svg version="1.0" id="Capa_1" xmlns="http://www.w3.org/2000/svg" xmlns:xlink="http://www.w3.org/1999/xlink" x="0px" y="0px"
	 viewBox="0 0 2160 2160" style="enable-background:new 0 0 2160 2160;" xml:space="preserve">
<style type="text/css">
	.st0{fill:#303030;}
</style>
<path id="Icon_awesome-network-wired" class="st0" d="M2013.02,1103.33v-46.65c0.01-25.76-20.87-46.65-46.63-46.65
	c-0.01,0-0.02,0-0.02,0h-816.38V893.4h209.93c51.52-0.02,93.27-41.79,93.27-93.31v-373.2c-0.01-51.52-41.76-93.28-93.27-93.3H800.08
	c-51.52,0.01-93.29,41.77-93.3,93.3v373.2c0,51.53,41.77,93.3,93.3,93.31h209.94v116.63H193.64c-25.76-0.01-46.65,20.87-46.65,46.63
	c0,0,0,0.01,0,0.01v46.65c-0.01,25.76,20.87,46.65,46.63,46.65c0.01,0,0.02,0,0.02,0h303.23v116.63H333.59
	c-51.52,0-93.3,41.76-93.31,93.29v373.2c0.01,51.52,41.77,93.29,93.3,93.3h466.5c51.52-0.01,93.29-41.77,93.3-93.3v-373.2
	c-0.01-51.52-41.77-93.29-93.3-93.3H636.82v-116.63h886.42v116.63h-163.27c-51.52,0.01-93.29,41.77-93.3,93.3v373.2
	c0.01,51.52,41.77,93.29,93.3,93.3h466.5c51.52-0.01,93.29-41.77,93.3-93.3v-373.2c-0.01-51.52-41.77-93.29-93.3-93.3h-163.27
	v-116.63h303.23C1992.16,1149.95,2013.02,1129.07,2013.02,1103.33z M893.39,706.8V520.2h373.2v186.6H893.39z M706.8,1639.79H426.89
	V1453.2H706.8V1639.79z M1733.11,1639.79h-279.93V1453.2h279.91L1733.11,1639.79z"/>
<g>
</g>
<g>
</g>
<g>
</g>
<g>
</g>
<g>
</g>
<g>
</g>
<g>
</g>
<g>
</g>
<g>
</g>
<g>
</g>
<g>
</g>
<g>
</g>
<g>
</g>
<g>
</g>
<g>
</g>
</svg>
