<?xml version="1.0" encoding="utf-8"?>
<!-- Generator: Adobe Illustrator 24.1.0, SVG Export Plug-In . SVG Version: 6.00 Build 0)  -->
<svg version="1.0" id="Capa_1" xmlns="http://www.w3.org/2000/svg" xmlns:xlink="http://www.w3.org/1999/xlink" x="0px" y="0px"
	 viewBox="0 0 2160 2160" style="enable-background:new 0 0 2160 2160;" xml:space="preserve">
<style type="text/css">
	.st0{fill:#E8E7E7;}
</style>
<path id="Polígono_2" class="st0" d="M1378.94,148.96c1.77,0,3.49,0.56,4.92,1.6l483.87,352.29c1.43,1.04,2.49,2.5,3.03,4.17
	l184.83,570c0.54,1.67,0.54,3.48,0,5.15l-184.83,569.99c-0.54,1.68-1.6,3.14-3.03,4.17l-483.88,352.28c-1.43,1.04-3.15,1.6-4.92,1.6
	h-598.1c-1.77,0-3.49-0.56-4.92-1.6l-483.87-352.28c-1.43-1.04-2.49-2.5-3.03-4.17l-184.83-570c-0.54-1.67-0.54-3.48,0-5.15
	l184.83-569.99c0.54-1.68,1.6-3.14,3.03-4.17l483.88-352.29c1.43-1.04,3.14-1.6,4.91-1.6H1378.94z"/>
<g>
</g>
<g>
</g>
<g>
</g>
<g>
</g>
<g>
</g>
<g>
</g>
<g>
</g>
<g>
</g>
<g>
</g>
<g>
</g>
<g>
</g>
<g>
</g>
<g>
</g>
<g>
</g>
<g>
</g>
</svg>
