<?xml version="1.0" encoding="utf-8"?>
<!-- Generator: Adobe Illustrator 24.1.0, SVG Export Plug-In . SVG Version: 6.00 Build 0)  -->
<svg version="1.0" id="Capa_1" xmlns="http://www.w3.org/2000/svg" xmlns:xlink="http://www.w3.org/1999/xlink" x="0px" y="0px"
	 viewBox="0 0 2160 2160" style="enable-background:new 0 0 2160 2160;" xml:space="preserve">
<style type="text/css">
	.st0{fill:#303030;}
</style>
<path id="Icon_awesome-brain" class="st0" d="M811.92,222.1c-97.86,0.11-183.16,66.64-207.1,161.53c-2.68,0-4.66-0.68-7.38-0.68
	C479.02,383.04,383.03,479,382.93,597.43c0.02,15.81,1.93,31.56,5.7,46.92C252.46,699.17,186.52,854,241.35,990.16
	c2.61,6.49,5.48,12.87,8.59,19.13c-128.23,72.93-173.05,236-100.12,364.22c29.48,51.84,75.47,92.32,130.62,114.99
	c-3.08,15.56-4.64,31.39-4.66,47.26c-0.06,133.17,107.85,241.18,241.03,241.24c0.07,0,0.14,0,0.21,0
	c13.5-0.14,26.96-1.49,40.22-4.02c41.89,126.17,178.12,194.5,304.3,152.61c98.63-32.74,165.12-125.09,164.87-229.02V436.53
	C1026.27,318.14,930.31,222.21,811.92,222.1z M2045.15,1240.86c-0.14-95.85-51.69-184.25-135.05-231.57
	c18.15-36.33,27.67-76.35,27.82-116.96c-0.04-108.8-65.85-206.79-166.55-247.99c27.03-114.2-43.63-228.69-157.83-255.72
	c-16.7-3.95-33.81-5.87-50.96-5.7c-2.68,0-5.02,0.68-7.38,0.68c-29.05-114.6-145.49-183.95-260.09-154.91
	c-95.09,24.1-161.63,109.75-161.47,207.84v1260.04c-0.31,132.94,107.21,240.97,240.15,241.28
	c103.93,0.24,196.28-66.24,229.02-164.87c13.26,2.53,26.72,3.88,40.22,4.02c133.17,0.06,241.18-107.85,241.24-241.03
	c0-0.07,0-0.14,0-0.21c-0.02-15.87-1.58-31.69-4.66-47.26C1979.8,1447.03,2045.14,1349.29,2045.15,1240.86z"/>
<g>
</g>
<g>
</g>
<g>
</g>
<g>
</g>
<g>
</g>
<g>
</g>
<g>
</g>
<g>
</g>
<g>
</g>
<g>
</g>
<g>
</g>
<g>
</g>
<g>
</g>
<g>
</g>
<g>
</g>
</svg>
