<?xml version="1.0" encoding="utf-8"?>
<!-- Generator: Adobe Illustrator 24.1.0, SVG Export Plug-In . SVG Version: 6.00 Build 0)  -->
<svg version="1.0" id="Capa_1" xmlns="http://www.w3.org/2000/svg" xmlns:xlink="http://www.w3.org/1999/xlink" x="0px" y="0px"
	 viewBox="0 0 2160 2160" style="enable-background:new 0 0 2160 2160;" xml:space="preserve">
<style type="text/css">
	.st0{fill:#303030;}
</style>
<path id="Icon_weather-lightning" class="st0" d="M360.19,2033.75h40l705.57-1044.01c9.23-18.46,4.1-27.69-15.38-27.69H799.11
	l306.64-558.91c9.23-18.46,2.05-27.69-20.51-27.69H694.52c-12.37,0.82-23.51,7.74-29.74,18.46l-285.1,758.91
	c-2.05,18.46,4.11,27.69,19.49,27.69h282.01L360.19,2033.75z M1231.9,1384.58h27.69l535.29-786.58c4.52-5.81,6.05-13.41,4.11-20.51
	c-2.05-5.15-8.2-7.18-17.43-7.18h-215.37l223.54-413.29c12.31-20.51,6.15-30.77-18.46-30.77h-280.94
	c-13.23-0.25-25.34,7.42-30.77,19.49l-213.31,561.99c-3.42,6.87-3.03,15.02,1.03,21.54c4.97,5.38,12.22,8.05,19.49,7.18h209.2
	L1231.9,1384.58z"/>
<g>
</g>
<g>
</g>
<g>
</g>
<g>
</g>
<g>
</g>
<g>
</g>
<g>
</g>
<g>
</g>
<g>
</g>
<g>
</g>
<g>
</g>
<g>
</g>
<g>
</g>
<g>
</g>
<g>
</g>
</svg>
