<?xml version="1.0" encoding="utf-8"?>
<!-- Generator: Adobe Illustrator 24.1.0, SVG Export Plug-In . SVG Version: 6.00 Build 0)  -->
<svg version="1.0" id="Capa_1" xmlns="http://www.w3.org/2000/svg" xmlns:xlink="http://www.w3.org/1999/xlink" x="0px" y="0px"
	 viewBox="0 0 2160 2160" style="enable-background:new 0 0 2160 2160;" xml:space="preserve">
<style type="text/css">
	.st0{fill:#B0B0B0;}
</style>
<path id="Icon_awesome-js" class="st0" d="M67,67v2026h2026V67H67z M1169.56,1647.1c0,197.17-115.77,287.2-284.48,287.2
	c-122.1,6.63-235.68-62.56-285.81-174.09l155.11-93.61c29.85,53.07,56.99,97.66,122.54,97.66c62.43,0,102.24-24.41,102.24-119.82
	V997.27h190.41V1647.1z M1619.97,1934.57c-143.85,9.28-279.71-66.89-346.84-194.45l155.11-89.56
	c35.24,71.34,108.12,116.3,187.69,115.77c78.68,0,129.37-39.34,129.37-94.08c0-65.15-51.55-88.17-138.86-126.65l-47.5-20.37
	c-137.46-58.32-228.35-132.02-228.35-287.2c0-142.9,109-251.44,278.64-251.44c112.64-8.23,219.23,51.91,270.42,152.59l-148.34,94.94
	c-19.97-49.95-68.75-82.35-122.54-81.4c-45.43-4.55-85.94,28.59-90.48,74.02c-0.25,2.45-0.38,4.92-0.41,7.38
	c0,56.99,35.29,80.08,117.1,115.77l47.5,20.37c161.88,69.2,252.77,140.18,252.77,299.41c0,170.97-134.74,265.04-315.2,265.04
	L1619.97,1934.57z"/>
<g>
</g>
<g>
</g>
<g>
</g>
<g>
</g>
<g>
</g>
<g>
</g>
<g>
</g>
<g>
</g>
<g>
</g>
<g>
</g>
<g>
</g>
<g>
</g>
<g>
</g>
<g>
</g>
<g>
</g>
</svg>
