<?xml version="1.0" encoding="utf-8"?>
<!-- Generator: Adobe Illustrator 24.1.0, SVG Export Plug-In . SVG Version: 6.00 Build 0)  -->
<svg version="1.0" id="Capa_1" xmlns="http://www.w3.org/2000/svg" xmlns:xlink="http://www.w3.org/1999/xlink" x="0px" y="0px"
	 viewBox="0 0 2160 2160" style="enable-background:new 0 0 2160 2160;" xml:space="preserve">
<style type="text/css">
	.st0{fill:#B0B0B0;}
</style>
<path id="Icon_awesome-node-js" class="st0" d="M1079.58,2094.23c-27.81-0.06-55.13-7.27-79.34-20.94L747.95,1926.4
	c-37.6-20.94-19.45-28.2-6.94-32.41c40.02-12.22,78.34-29.4,114.09-51.14c6.1-2.9,13.29-2.28,18.8,1.62l193.82,113.12
	c7.25,4.04,16.08,4.04,23.34,0l755.25-429.06c7.05-4.25,11.4-11.86,11.47-20.09V650.18c-0.04-8.47-4.55-16.28-11.86-20.55
	l-754.86-428.41c-7.25-4.04-16.08-4.04-23.34,0l-754.4,429.12c-7.39,4.19-11.93,12.05-11.86,20.55v857.73
	c0.07,8.17,4.63,15.65,11.86,19.45l206.91,117.78c112.47,55.16,181.11-9.66,181.11-75.19V723.69c0.07-11.85,9.73-21.4,21.58-21.34
	c0.18,0,0.35,0,0.53,0.01h95.68c11.99-0.22,21.89,9.33,22.1,21.32c0,0,0,0,0,0.01v847.29c0,147.34-81.81,231.87-223.7,231.87
	c-61.17,1.1-121.4-15.08-173.79-46.67l-197.9-112.34c-48.95-27.64-79.25-79.46-79.34-135.67V650.18
	c0.28-56.09,30.54-107.75,79.34-135.41L1000.3,85.7c49.56-26.57,109.13-26.57,158.69,0l755.18,429.51
	c48.93,27.63,79.23,79.42,79.34,135.61v857.8c-0.29,56.16-30.54,107.89-79.34,135.67l-755.25,429.06
	C1134.72,2087.05,1107.39,2094.24,1079.58,2094.23z M1689.23,1248.55c0-160.63-110.2-203.28-342.26-233.36
	c-234.72-30.6-258.45-46.28-258.45-100.22c0-44.66,20.03-104.23,193.82-104.23c154.99,0,212.23,32.99,235.95,136.13
	c2.29,9.9,11.1,16.91,21.26,16.92h98.14c6.04,0.05,11.83-2.44,15.95-6.87c4.09-4.5,6.15-10.47,5.7-16.53
	c-15.04-177.68-134.77-260.13-376.94-260.13c-215.47,0-343.88,89.39-343.88,239.52c0,162.64,127.96,207.43,334.48,227.85
	c247.36,23.72,266.61,59.57,266.61,107.48c0,82.91-67.87,118.37-226.88,118.37c-199.98,0-243.73-49.52-258.45-147.34
	c-1.71-10.58-10.94-18.29-21.65-18.09H934.7c-11.81-0.14-21.51,9.32-21.65,21.13c0,0.07,0,0.13,0,0.2
	c0,125.17,69.1,274.52,399.89,274.52c238.81-0.39,375.97-93.41,375.97-255.21L1689.23,1248.55z"/>
<g>
</g>
<g>
</g>
<g>
</g>
<g>
</g>
<g>
</g>
<g>
</g>
<g>
</g>
<g>
</g>
<g>
</g>
<g>
</g>
<g>
</g>
<g>
</g>
<g>
</g>
<g>
</g>
<g>
</g>
</svg>
