<?xml version="1.0" encoding="utf-8"?>
<!-- Generator: Adobe Illustrator 24.1.0, SVG Export Plug-In . SVG Version: 6.00 Build 0)  -->
<svg version="1.0" id="Capa_1" xmlns="http://www.w3.org/2000/svg" xmlns:xlink="http://www.w3.org/1999/xlink" x="0px" y="0px"
	 viewBox="0 0 2160 2160" style="enable-background:new 0 0 2160 2160;" xml:space="preserve">
<style type="text/css">
	.st0{fill:#B0B0B0;}
</style>
<path id="Icon_simple-postman" class="st0" d="M1208.49,79.48C655.91,8.52,150.44,398.94,79.48,951.51
	s319.46,1058.05,872.04,1129.01c552.57,70.96,1058.05-319.46,1129.01-872.04c0-0.03,0.01-0.06,0.01-0.08
	C2151.44,655.85,1761.03,150.43,1208.49,79.48z M1416.23,708.77c-18.72,0.25-36.6,7.79-49.84,21.02l-374.42,374.35l-25.79-25.79
	l-54.03-54.03C1281.09,656.35,1347.88,652.87,1416.23,708.77z M1007.38,1117.42l373.26-373.26c19.41-21.24,52.37-22.72,73.6-3.3
	c21.24,19.41,22.72,52.37,3.3,73.6c-1.84,2.02-3.84,3.89-5.98,5.59l-395.05,346.82L1007.38,1117.42z M1035.11,1175.45l-92.46,19.99
	c-2.87,0.51-5.62-1.41-6.13-4.28c-0.29-1.65,0.21-3.34,1.36-4.55l54.22-54.22l43.07,43.07H1035.11z M799.45,1136.77l98.52-98.52
	l73.89,73.83l-166.35,35.78c-2.86,0.66-5.8-0.69-7.16-3.29C796.74,1142.05,797.21,1138.74,799.45,1136.77z M492.92,1646.13
	c-3.51-0.34-6.1-3.44-5.8-6.96c0.16-1.47,0.82-2.83,1.87-3.87l0,0l79.5-79.5l102.71,102.71l-178.28-12.06L492.92,1646.13z
	 M696.67,1540.91c-7.81,4.09-11.87,12.95-9.86,21.54l17.09,72.73c1.4,5.63-2.03,11.33-7.66,12.73c-3.63,0.9-7.46-0.19-10.07-2.87
	l0,0l-78.6-78.6l-24.69-24.82l316.26-315.94l153-33.01l73.5,73.5C994.66,1375.28,850.55,1467.57,696.67,1540.91z M1140.46,1252.7
	L1140.46,1252.7l-70.54-70.54l395.05-346.82c3.65-3.25,7-6.84,9.99-10.7c-12.44,113.09-170.61,272.87-334.38,428.06H1140.46z
	 M1448.08,709.48L1448.08,709.48c-59.55-60.11-59.09-157.1,1.01-216.65c56.02-55.5,145.03-59.4,205.7-9.02l-135.4,135.4
	c-3.92,3.89-3.94,10.22-0.05,14.13c0.02,0.02,0.03,0.03,0.05,0.05l104.84,104.84C1565.44,767.52,1494.51,755.94,1448.08,709.48z
	 M1664.79,709.48c-6.95,6.86-14.57,12.99-22.76,18.31l0,0l-101.55-101.36l128.95-128.95c55.55,60.46,53.56,153.96-4.51,212
	L1664.79,709.48z M1656.4,579.69c-4.02,2.95-5.79,8.09-4.45,12.9c6.13,12.39,4.39,27.22-4.45,37.85
	c-4.39,4.72-4.11,12.11,0.61,16.49c4.72,4.39,12.11,4.11,16.49-0.61c0.29-0.31,0.57-0.65,0.82-0.99
	c14.76-17.72,17.62-42.5,7.29-63.12c-3.67-5.26-10.9-6.55-16.16-2.88c-0.05,0.04-0.1,0.07-0.15,0.11V579.69z"/>
<g>
</g>
<g>
</g>
<g>
</g>
<g>
</g>
<g>
</g>
<g>
</g>
<g>
</g>
<g>
</g>
<g>
</g>
<g>
</g>
<g>
</g>
<g>
</g>
<g>
</g>
<g>
</g>
<g>
</g>
</svg>
