<?xml version="1.0" encoding="utf-8"?>
<!-- Generator: Adobe Illustrator 24.1.0, SVG Export Plug-In . SVG Version: 6.00 Build 0)  -->
<svg version="1.0" id="Capa_1" xmlns="http://www.w3.org/2000/svg" xmlns:xlink="http://www.w3.org/1999/xlink" x="0px" y="0px"
	 viewBox="0 0 2160 2160" style="enable-background:new 0 0 2160 2160;" xml:space="preserve">
<style type="text/css">
	.st0{fill:#B0B0B0;}
</style>
<path id="Icon_simple-react" class="st0" d="M1080.03,900.41c-99.24,0-179.7,80.45-179.7,179.7s80.45,179.7,179.7,179.7
	s179.7-80.45,179.7-179.7S1179.27,900.41,1080.03,900.41L1080.03,900.41z M576.42,1437.32l-39.67-10.09
	C241.5,1352.55,72,1225.81,72,1079.53s169.5-273.01,465.04-347.7l39.67-9.97l11.18,39.32c29.99,103.12,68.33,203.63,114.64,300.53
	l8.48,17.88l-8.48,17.94c-46.39,96.86-84.73,197.38-114.64,300.53L576.42,1437.32z M518.64,823.71
	C294,886.76,156.2,983.29,156.2,1079.59c0,96.3,137.57,192.71,362.43,255.88c27.47-87.37,60.63-172.84,99.28-255.88
	C579.22,996.58,546.06,911.1,518.64,823.71z M1583.36,1437.32l-11.18-39.38c-29.93-103.13-68.27-203.62-114.64-300.47l-8.48-17.88
	l8.48-17.88c46.35-96.88,84.69-197.39,114.64-300.53l11.18-39.32l39.72,9.97C1918.5,806.34,2088,933.25,2088,1079.59
	s-169.5,273.01-464.92,347.7L1583.36,1437.32z M1542.08,1079.59c38.7,83.01,71.86,168.49,99.28,255.88
	c224.69-63.05,362.43-159.69,362.43-255.88c0-96.18-137.57-192.71-362.43-255.88C1613.93,911.09,1580.77,996.57,1542.08,1079.59z
	 M518.06,823.25l-11.18-39.21c-83.11-292.85-57.89-502.7,69.13-575.89c124.56-71.88,324.6,13.01,534.16,228.13l28.66,29.29
	l-28.66,29.29c-74.46,77.42-142.5,160.77-203.43,249.23l-11.46,16.22l-19.72,1.66c-107.2,8.45-213.53,25.59-317.95,51.24
	L518.06,823.25z M677.3,266.33c-20.68-0.46-41.1,4.57-59.21,14.56c-83.52,48.15-98.3,215.47-40.75,441.36
	c89.52-19.91,180.24-33.96,271.58-42.07c52.7-74.94,110.28-146.32,172.36-213.69C890.24,338.9,766.14,266.5,677.36,266.5
	L677.3,266.33z M1482.76,1976.76L1482.76,1976.76c-119.68,0-273.42-90.11-432.94-253.93l-28.66-29.29l28.66-29.29
	c74.45-77.43,142.47-160.8,203.37-249.28l11.46-16.22l19.66-1.66c107.25-8.39,213.64-25.49,318.13-51.13l39.67-9.97l11.46,39.32
	c82.88,292.68,57.78,502.58-69.24,575.72c-30.85,17.44-65.79,26.36-101.23,25.85L1482.76,1976.76z M1138.84,1692.74
	c131.03,127.59,255.13,199.99,343.92,199.99l0,0c20.66,0.46,41.07-4.56,59.15-14.56c83.52-48.15,98.36-215.52,40.75-441.36
	c-89.53,19.94-180.27,33.99-271.64,42.07c-52.65,75-110.21,146.42-172.3,213.8L1138.84,1692.74z M1642.11,823.25l-39.67-9.97
	c-104.47-25.73-210.86-42.87-318.13-51.24l-19.66-1.66l-11.46-16.22c-60.87-88.49-128.89-171.84-203.37-249.23l-28.66-29.29
	l28.66-29.29c209.5-215.06,409.44-299.96,534.16-228.13c127.02,73.25,152.18,283.1,69.24,575.84L1642.11,823.25z M1311.14,679.95
	c91.37,8.06,182.11,22.12,271.64,42.07c57.61-225.78,42.76-393.1-40.75-441.36c-83.52-48.26-238.97,25.56-403.19,185.49
	c62.06,67.37,119.62,138.76,172.3,213.69V679.95z M677.3,1976.76c-35.46,0.52-70.41-8.4-101.28-25.85
	c-127.02-73.2-152.24-283.05-69.13-575.78l11.06-39.09l39.67,9.97c104.42,25.64,210.76,42.74,317.95,51.13l19.72,1.66l11.46,16.22
	c60.94,88.47,128.98,171.84,203.43,249.28l28.66,29.29l-28.66,29.29c-159.41,163.82-313.14,253.93-432.71,253.93L677.3,1976.76z
	 M577.33,1436.86c-57.61,225.78-42.76,393.21,40.75,441.36s238.79-25.62,403.19-185.49c-62.06-67.43-119.63-138.85-172.36-213.8
	C757.57,1470.86,666.84,1456.81,577.33,1436.86z M1079.97,1489.6c-69.13,0-140.2-3.04-211.34-8.88l-19.72-1.66l-11.46-16.22
	c-40.28-57.78-78.03-117.24-113.26-178.38s-67.89-123.47-97.96-186.98l-8.43-17.88l8.43-17.88c30.04-63.7,62.69-126.08,97.96-187.15
	c34.79-60.13,72.97-120.37,113.38-178.27l11.46-16.22l19.72-1.66c140.68-11.93,282.11-11.93,422.79,0l19.66,1.66l11.46,16.22
	c80.42,115.67,151,237.89,210.99,365.36l8.48,17.88l-8.48,17.88c-60,127.58-130.74,249.82-211.45,365.41l-11.46,16.22l-19.66,1.66
	c-70.79,5.9-141.92,8.94-211.05,8.94L1079.97,1489.6z M895.4,1398.52c122.89,9.33,246.31,9.33,369.2,0
	c69.45-101.54,131.11-208.19,184.46-319.04c-53.26-110.92-114.96-217.58-184.57-319.04c-122.85-9.32-246.23-9.32-369.08,0
	c-69.64,101.44-131.34,208.11-184.57,319.04C764.24,1190.31,825.94,1296.96,895.4,1398.52z"/>
<g>
</g>
<g>
</g>
<g>
</g>
<g>
</g>
<g>
</g>
<g>
</g>
<g>
</g>
<g>
</g>
<g>
</g>
<g>
</g>
<g>
</g>
<g>
</g>
<g>
</g>
<g>
</g>
<g>
</g>
</svg>
