<?xml version="1.0" encoding="utf-8"?>
<!-- Generator: Adobe Illustrator 24.1.0, SVG Export Plug-In . SVG Version: 6.00 Build 0)  -->
<svg version="1.0" id="Capa_1" xmlns="http://www.w3.org/2000/svg" xmlns:xlink="http://www.w3.org/1999/xlink" x="0px" y="0px"
	 viewBox="0 0 2160 2160" style="enable-background:new 0 0 2160 2160;" xml:space="preserve">
<style type="text/css">
	.st0{fill:#B0B0B0;}
</style>
<path id="Icon_awesome-sass" class="st0" d="M1022.63,1468.21C1021.6,1470.09,1020.75,1471.62,1022.63,1468.21z M1808.12,1193.91
	c-63.41-0.02-125.98,14.54-182.86,42.55c-17.83-29.66-31.61-61.57-40.99-94.88c-5.36-26.24-6.53-53.17-3.45-79.77
	c6.08-29.09,14.07-57.75,23.95-85.78c-0.31-3.45-4.48-20.81-45.07-21.12c-40.58-0.31-75.69,7.89-79.73,18.61
	c-7.19,19.59-12.78,39.73-16.73,60.22c-33.74,82.73-75.01,162.2-123.27,237.39c-12.86-21.55-22.32-44.94-28.07-69.37
	c-5.36-26.24-6.53-53.17-3.45-79.77c6.08-29.09,14.07-57.75,23.95-85.78c-0.31-3.45-4.48-20.81-44.84-21.12s-75.65,7.89-79.77,18.61
	c-4.13,10.72-8.52,35.87-16.73,60.22c-8.21,24.35-107.04,243.76-132.87,300.62c-13.45,29.01-24.57,52.33-32.78,68.11
	c-1.26,2.51-2.2,4.08-2.82,5.38c0.94-1.57,1.57-3.14,1.57-2.51c-6.95,13.45-11.03,21.12-11.03,21.12v0.31
	c-5.38,10.09-11.34,19.24-14.17,19.24c-4.79-20.69-4.46-42.24,0.94-62.78c14.8-76.23,49.82-194.84,49.33-198.96
	c-0.31-2.2,6.64-22.69-23-33.72c-13.97-6.55-30.53-3.79-41.61,6.95c-2.51,0-4.48,6.32-4.48,6.32s31.84-133.67-61.12-133.67
	c-58.02,0-138.74,63.67-178.38,121.39c-24.89,13.45-78.83,42.87-135.56,74.08l-65.24,35.87c-1.57-1.57-2.82-3.14-4.48-4.71
	C422.7,1196.74,214.45,1111.58,223.2,949.84c3.14-58.97,23.63-213.76,400.66-401.69c309-153.85,556.03-111.61,598.54-17.67
	c61.16,133.99-132.06,383.39-452.9,419.36c-122.28,13.45-186.59-33.72-202.68-51.39c-16.73-18.61-19.24-19.55-25.56-16.1
	c-10.4,5.69-3.77,22.06,0,31.84c24.82,44.76,66.64,77.61,116,91.12c126.04,27.34,257.5,14.32,375.73-37.22
	c194.79-75.02,346.4-284.07,301.96-459.09c-45.33-177.75-340.26-236.09-618.99-136.86c-174.68,58.64-336.09,151.14-475.01,272.19
	C87.42,788.1,62.89,913.38,72.98,965.62c35.87,185.69,291.87,306.76,394.29,396.31c-5.07,2.82-9.78,5.38-14.17,7.89
	c-51.34,25.56-246.63,127.71-295.33,235.51c-55.15,122.33,8.97,209.99,51.34,221.97c130.82,31.36,267.11-23.89,339.18-137.48
	c60.71-93.42,72-210.59,30.27-313.89c-0.31-0.94-0.94-1.57-1.26-2.51c13.45-7.89,26.9-15.78,40.36-23.63
	c26.14-15.47,51.66-29.64,74.08-41.93c-15.1,43.38-24.02,88.66-26.5,134.52c-5.1,70.03,16.39,139.41,60.18,194.3
	c13.41,11.53,30.89,17.22,48.52,15.78c43.5,0,63.05-35.87,84.8-78.83c26.9-52.33,50.45-113.18,50.45-113.18
	s-29.64,164.57,51.39,164.57c29.6,0,59.24-38.16,72.51-57.71v0.31c0,0,0.63-1.26,2.2-3.77c3.14-4.71,4.71-7.58,4.71-7.58v-0.76
	c11.97-20.49,38.16-67.26,77.53-145.02c51.07-100.27,99.91-225.42,99.91-225.42c4.68,27.51,11.16,54.68,19.42,81.34
	c11.92,32.45,26.03,64.04,42.24,94.57c-11.97,16.41-19.24,25.87-19.24,25.87c0.02,0.24,0.14,0.46,0.31,0.63
	c-9.46,12.6-20.18,26.19-31.39,39.42c-34.18,37.32-65.78,76.94-94.57,118.56c-8.89,14.5-4.96,33.42,8.97,43.18
	c15.1,8.07,32.46,10.84,49.33,7.89c25.5-1.31,50.57-7.08,74.08-17.04c22.67-8.12,44.11-19.37,63.67-33.41
	c40.93-28.28,64.12-75.89,61.16-125.56c-2.35-30.77-10.14-60.87-23-88.92c3.45-5.02,7.26-10.4,10.72-15.78
	c41.04-61.2,77.99-125.05,110.62-191.11c4.72,27.51,11.25,54.69,19.55,81.34c9.78,27.92,21.78,55.02,35.87,81.03
	c-47.22,36.32-84.29,84.19-107.62,139.01c-23.32,67.26-5.02,97.44,29.33,104.35c18.59,1.13,37.16-2.68,53.81-11.03
	c24.35-8.1,47.3-19.9,68.07-34.98c44.55-26.21,72.79-73.2,75.02-124.84c-1.65-25.35-7.4-50.26-17.04-73.76
	c62.18-24.43,129.66-32.25,195.78-22.69c175.55,20.49,209.9,130.04,203.31,175.91c-6.34,33.11-26.7,61.86-55.83,78.83
	c-12.29,7.58-16.1,10.4-15.16,16.1c1.57,8.21,7.26,7.89,17.67,6.01c54.32-16.74,92.64-65.3,96.32-122.01
	c5.02-107.22-98.02-225.1-280.62-224.21L1808.12,1193.91z M454.94,1650.13c-57.98,63.36-139.32,87.35-174.3,67.26
	c-37.53-21.84-22.69-115.06,48.83-182.64c42.39-38.15,88.19-72.35,136.81-102.15c8.52-5.02,20.81-12.6,35.87-21.75
	c2.51-1.57,3.77-2.2,3.77-2.2c2.83-1.88,6.01-3.45,8.97-5.38C540.95,1490.35,518.03,1584.71,454.94,1650.13z M878.55,1361.93
	c-20.18,49.33-62.78,175.6-88.56,169.01c-22.06-5.69-35.65-101.83-4.48-196.41c15.83-45.7,39.17-88.43,69.06-126.45
	c31.79-35.65,66.81-46.99,75.02-32.78c11.3,18.61-38.38,155.73-50.98,186.63H878.55z M1228.54,1529.06
	c-8.52,4.48-16.41,7.26-20.18,5.02c-2.83-1.57,3.45-7.58,3.45-7.58s43.81-46.99,61.16-68.43c10.09-12.6,21.75-27.44,34.35-43.81
	c0,1.57,0.31,3.14,0.31,5.02c-6.85,47.34-36.42,88.34-79.19,109.77H1228.54z M1498.35,1467.58c-6.32-4.48-5.38-19.24,15.78-65.24
	c14.58-29.52,34.95-55.79,59.91-77.26c3.72,10.97,5.75,22.45,6.01,34.03c0.59,50.5-32.93,95.05-81.61,108.47H1498.35z"/>
<g>
</g>
<g>
</g>
<g>
</g>
<g>
</g>
<g>
</g>
<g>
</g>
<g>
</g>
<g>
</g>
<g>
</g>
<g>
</g>
<g>
</g>
<g>
</g>
<g>
</g>
<g>
</g>
<g>
</g>
</svg>
