<?xml version="1.0" encoding="utf-8"?>
<!-- Generator: Adobe Illustrator 24.1.0, SVG Export Plug-In . SVG Version: 6.00 Build 0)  -->
<svg version="1.0" id="Capa_1" xmlns="http://www.w3.org/2000/svg" xmlns:xlink="http://www.w3.org/1999/xlink" x="0px" y="0px"
	 viewBox="0 0 2160 2160" style="enable-background:new 0 0 2160 2160;" xml:space="preserve">
<style type="text/css">
	.st0{fill:#D3D2D2;}
</style>
<path id="Icon_ionic-ios-close-circle" class="st0" d="M1079.96,56C514.42,56.02,55.98,514.5,56,1080.04
	C56.02,1645.58,514.5,2104.02,1080.04,2104c565.54-0.02,1023.98-458.5,1023.96-1024.04l0,0C2104.07,514.51,1645.73,56.07,1080.28,56
	C1080.17,56,1080.07,56,1079.96,56z M1339.46,1450.72l-259.5-259.46L820.5,1450.72c-30.45,31-80.26,31.45-111.26,1
	c-31-30.45-31.45-80.26-1-111.26c0.33-0.34,0.66-0.67,1-1l259.5-259.5L709.28,820.5c-31-30.45-31.45-80.26-1-111.26
	s80.26-31.45,111.26-1c0.34,0.33,0.67,0.66,1,1l259.42,259.5l259.46-259.46c31-30.45,80.81-30,111.26,1
	c30.06,30.61,30.06,79.66,0,110.27l-259.42,259.42l259.46,259.46c30.55,30.8,30.55,80.47,0,111.26
	c-30.31,30.74-79.8,31.08-110.54,0.76C1339.94,1451.2,1339.7,1450.96,1339.46,1450.72z"/>
<g>
</g>
<g>
</g>
<g>
</g>
<g>
</g>
<g>
</g>
<g>
</g>
<g>
</g>
<g>
</g>
<g>
</g>
<g>
</g>
<g>
</g>
<g>
</g>
<g>
</g>
<g>
</g>
<g>
</g>
</svg>
