<?xml version="1.0" encoding="utf-8"?>
<!-- Generator: Adobe Illustrator 24.1.0, SVG Export Plug-In . SVG Version: 6.00 Build 0)  -->
<svg version="1.0" id="Capa_1" xmlns="http://www.w3.org/2000/svg" xmlns:xlink="http://www.w3.org/1999/xlink" x="0px" y="0px"
	 viewBox="0 0 2160 2160" style="enable-background:new 0 0 2160 2160;" xml:space="preserve">
<style type="text/css">
	.st0{enable-background:new    ;}
	.st1{fill:#B0B0B0;}
</style>
<g class="st0">
	<path class="st1" d="M389.29,1040.95l93.41,227.62h-89.26l-50.05-142.5c-4.46-12.75-8.61-28.37-12.43-46.86h-1.27l-2.87,5.74
		c-4.46,10.63-8.72,18.38-12.75,23.27l-127.2,160.35H88.99l199.56-234.63L196.1,811.42h91.81l45.91,138.67
		c7.65,22.74,11.69,38.25,12.11,46.54h1.59l2.55-5.42c4.89-10.62,9.25-18.38,13.07-23.27l124.65-156.53h92.13L389.29,1040.95z"/>
	<path class="st1" d="M884.91,1055.61c0,39.74-8.72,77.04-26.14,111.9c-17.43,34.86-41.28,61.74-71.57,80.65
		c-30.29,18.92-64.24,28.37-101.85,28.37c-21.68,0-42.29-3.08-61.85-9.25l-32.2,152.06h-77.47l79.06-372.98
		c2.55-11.05,5.26-27.73,8.13-50.05s4.62-40.38,5.26-54.19h76.19c0,5.53-0.85,15.36-2.55,29.49c-1.7,14.14-3.19,25.02-4.46,32.68
		h1.27c29.11-46.75,66.09-70.13,110.94-70.13c30.81,0,54.72,10.84,71.73,32.52C876.41,988.35,884.91,1017.99,884.91,1055.61z
		 M807.77,1062.63c0-22.52-4.36-39.42-13.07-50.69c-8.72-11.26-21.15-16.9-37.3-16.9c-14.88,0-29.22,5.42-43.04,16.26
		c-13.82,10.84-26.3,26.99-37.46,48.46c-11.16,21.47-19.08,43.36-23.75,65.67l-18.49,84.8c4.46,1.7,12.22,3.56,23.27,5.58
		c11.05,2.02,20.83,3.03,29.33,3.03c22.74,0,43.3-7.12,61.69-21.36c18.38-14.24,32.78-33.52,43.2-57.86
		C802.56,1115.28,807.77,1089.62,807.77,1062.63z"/>
	<path class="st1" d="M1171.42,1016.4c-12.97-6.8-25.5-10.2-37.62-10.2c-22.11,0-42.24,11.16-60.41,33.47
		c-18.17,22.31-31.19,52.07-39.05,89.26l-29.65,139.63h-77.15l45.27-212.31c10.84-52.92,17.21-90.96,19.13-114.13h75.87
		c-2.13,20.62-5.1,43.57-8.93,68.86h1.28c13.39-24.23,27.47-43.09,42.24-56.58c14.77-13.49,32.04-20.24,51.8-20.24
		c8.07,0,18.81,1.59,32.2,4.78L1171.42,1016.4z"/>
	<path class="st1" d="M1488.52,1022.46c0,39.32-18.28,68.28-54.83,86.87c-36.56,18.6-92.03,28.32-166.41,29.17l-0.64,3.51v6.38
		c0,22.11,6.58,39.27,19.77,51.48c13.17,12.22,31.56,18.33,55.15,18.33c16.15,0,33.42-2.92,51.8-8.77
		c18.38-5.84,35.23-13.33,50.53-22.47l-12.75,63.44c-32.09,17.43-67.48,26.14-106.16,26.14c-42.29,0-75.29-11.79-98.98-35.39
		c-23.7-23.59-35.54-56.85-35.54-99.78c0-36.98,8.07-71.57,24.23-103.77c16.15-32.2,38.68-57.49,67.58-75.87
		c28.9-18.38,60.57-27.58,95-27.58c34.21,0,61.31,8.08,81.29,24.23C1478.53,974.53,1488.52,995.89,1488.52,1022.46z
		 M1413.92,1024.37c0-10.62-3.88-19.07-11.64-25.34c-7.76-6.27-18.44-9.4-32.04-9.4c-22.53,0-42.93,9.25-61.21,27.73
		c-18.28,18.49-30.29,41.23-36.02,68.22C1366.95,1085.58,1413.92,1065.18,1413.92,1024.37z"/>
	<path class="st1" d="M1752.71,1011.62c-9.35-5.52-20.46-10.31-33.31-14.35c-12.86-4.03-25.66-6.06-38.41-6.06
		c-17.85,0-31.19,3.78-40.01,11.32c-8.82,7.55-13.23,17.27-13.23,29.17c0,10.63,3.61,19.45,10.84,26.46
		c7.22,7.01,17.64,14.24,31.24,21.68c27.63,15.52,46.49,30.28,56.58,44.31c10.09,14.03,15.14,30.5,15.14,49.41
		c0,20.62-5.37,38.57-16.1,53.88c-10.73,15.3-26.41,27.31-47.02,36.02c-20.62,8.71-45.8,13.07-75.55,13.07
		c-16.15,0-33.26-1.81-51.32-5.42c-18.07-3.61-31.88-7.97-41.44-13.07l12.75-63.12c11.69,7.01,25.55,12.97,41.6,17.85
		c16.04,4.89,31.51,7.33,46.38,7.33c18.7,0,32.62-3.51,41.76-10.52c9.13-7.01,13.71-16.68,13.71-29.01c0-9.56-3.14-17.85-9.4-24.87
		c-6.27-7.01-18.44-15.41-36.5-25.18c-24.02-12.96-41.5-26.67-52.44-41.12c-10.95-14.45-16.42-31.45-16.42-51.01
		c0-19.97,5.15-37.88,15.46-53.72c10.31-15.83,25.18-28.21,44.63-37.14c19.45-8.93,42.56-13.39,69.34-13.39
		c15.94,0,31.51,1.43,46.7,4.3c15.19,2.87,28,6.43,38.41,10.68L1752.71,1011.62z"/>
	<path class="st1" d="M2034.75,1011.62c-9.35-5.52-20.46-10.31-33.31-14.35c-12.86-4.03-25.66-6.06-38.41-6.06
		c-17.85,0-31.19,3.78-40.01,11.32c-8.82,7.55-13.23,17.27-13.23,29.17c0,10.63,3.61,19.45,10.84,26.46
		c7.22,7.01,17.64,14.24,31.24,21.68c27.63,15.52,46.49,30.28,56.58,44.31c10.09,14.03,15.14,30.5,15.14,49.41
		c0,20.62-5.37,38.57-16.1,53.88c-10.73,15.3-26.41,27.31-47.02,36.02c-20.62,8.71-45.8,13.07-75.55,13.07
		c-16.15,0-33.26-1.81-51.32-5.42c-18.07-3.61-31.88-7.97-41.44-13.07l12.75-63.12c11.69,7.01,25.55,12.97,41.6,17.85
		c16.04,4.89,31.51,7.33,46.38,7.33c18.7,0,32.62-3.51,41.76-10.52c9.13-7.01,13.71-16.68,13.71-29.01c0-9.56-3.14-17.85-9.4-24.87
		c-6.27-7.01-18.44-15.41-36.5-25.18c-24.02-12.96-41.5-26.67-52.44-41.12c-10.95-14.45-16.42-31.45-16.42-51.01
		c0-19.97,5.15-37.88,15.46-53.72c10.31-15.83,25.18-28.21,44.63-37.14c19.45-8.93,42.56-13.39,69.34-13.39
		c15.94,0,31.51,1.43,46.7,4.3c15.19,2.87,28,6.43,38.41,10.68L2034.75,1011.62z"/>
</g>
<g>
</g>
<g>
</g>
<g>
</g>
<g>
</g>
<g>
</g>
<g>
</g>
<g>
</g>
<g>
</g>
<g>
</g>
<g>
</g>
<g>
</g>
<g>
</g>
<g>
</g>
<g>
</g>
<g>
</g>
</svg>
